<svg width="415" height="466" viewBox="0 0 415 466" fill="none" xmlns="http://www.w3.org/2000/svg">
<path d="M178.066 67.0882C178.906 67.1181 179.737 67.1664 180.574 67.2321C180.81 67.2492 181.046 67.2664 181.29 67.2841C181.875 67.3269 182.46 67.3718 183.045 67.4171C183.356 69.8356 183.462 72.257 183.57 74.696C183.592 75.1713 183.613 75.6466 183.635 76.1219C183.695 77.4293 183.754 78.7367 183.812 80.0442C183.876 81.4662 183.941 82.8881 184.005 84.3101C184.119 86.8028 184.231 89.2955 184.343 91.7882C184.51 95.4951 184.678 99.202 184.846 102.909C185.129 109.146 185.411 115.382 185.692 121.619C185.971 127.799 186.25 133.979 186.53 140.159C186.556 140.735 186.556 140.735 186.583 141.323C186.671 143.275 186.76 145.226 186.848 147.178C187.474 161.007 188.1 174.837 188.725 188.667C189.331 202.089 189.938 215.511 190.545 228.933C190.573 229.553 190.573 229.553 190.602 230.186C191.01 239.221 191.419 248.257 191.828 257.292C191.882 258.495 191.937 259.697 191.991 260.899C192.009 261.294 192.027 261.69 192.045 262.097C192.081 262.893 192.117 263.689 192.154 264.485C192.243 266.459 192.332 268.433 192.422 270.408C192.841 279.689 193.261 288.97 193.681 298.252C193.944 304.075 194.207 309.899 194.47 315.722C194.637 319.407 194.804 323.093 194.97 326.778C195.081 329.241 195.193 331.704 195.304 334.168C195.368 335.57 195.431 336.972 195.494 338.375C195.552 339.654 195.61 340.933 195.668 342.212C195.698 342.882 195.728 343.552 195.758 344.222C195.795 345.039 195.834 345.855 195.874 346.672C195.916 347.595 195.949 348.515 195.974 349.438C195.992 349.943 196.01 350.447 196.027 350.952C196.034 351.304 196.034 351.304 196.04 351.663C196.099 353.158 196.338 353.974 197.268 355.05C197.692 355.432 198.126 355.803 198.567 356.16C198.93 356.512 199.29 356.868 199.647 357.228C199.84 357.414 200.032 357.6 200.231 357.791C200.922 358.473 201.595 359.173 202.268 359.879C204.099 361.798 205.972 363.624 207.939 365.368C208.127 365.535 208.314 365.702 208.508 365.874C218.504 374.755 229.216 382.446 240.693 388.699C241.392 389.081 242.087 389.471 242.783 389.86C264.399 401.837 289.053 409.31 314.108 411.01C314.838 411.08 314.838 411.08 315.423 411.409C315.423 413.254 315.423 415.098 315.423 416.999C250.283 416.999 185.142 416.999 118.028 416.999C118.028 411.409 118.028 411.409 118.32 411.08C119.211 411.009 120.096 410.959 120.987 410.922C121.407 410.902 121.407 410.902 121.836 410.883C122.767 410.84 123.698 410.8 124.63 410.76C125.275 410.731 125.921 410.702 126.566 410.673C127.922 410.612 129.278 410.552 130.634 410.493C132.371 410.417 134.108 410.34 135.844 410.262C137.5 410.187 139.155 410.114 140.811 410.041C141.285 410.019 141.285 410.019 141.768 409.998C142.665 409.958 143.562 409.919 144.458 409.88C144.723 409.868 144.987 409.856 145.259 409.844C146.531 409.789 147.799 409.751 149.072 409.764C149.07 409.465 149.067 409.166 149.065 408.858C149.008 400.541 149.11 392.231 149.264 383.916C149.269 383.656 149.274 383.396 149.279 383.128C149.349 379.34 149.422 375.552 149.495 371.764C149.569 367.937 149.643 364.11 149.714 360.282C149.738 359.004 149.762 357.725 149.788 356.447C149.839 353.874 149.884 351.301 149.916 348.727C149.936 347.262 149.974 345.798 150.02 344.334C150.05 343.318 150.071 342.302 150.09 341.286C150.1 340.806 150.115 340.327 150.135 339.848C150.253 336.903 149.967 334.92 148.291 332.549C147.163 331.191 145.931 330.007 144.661 328.823C144.154 328.313 143.649 327.8 143.146 327.284C142.225 326.341 141.291 325.419 140.342 324.511C139.128 323.327 138.097 322.021 137.064 320.642C136.795 320.309 136.525 319.978 136.252 319.649C134.755 317.845 133.314 316.015 131.937 314.092C131.389 313.331 130.836 312.578 130.276 311.828C124.626 304.252 119.417 296.05 115.099 287.427C114.899 287.029 114.899 287.029 114.695 286.623C107.097 271.431 101.758 254.957 101.828 237.357C101.829 237.077 101.829 236.796 101.83 236.506C101.843 232.251 102.005 228.13 102.798 223.956C102.847 223.683 102.896 223.411 102.946 223.13C106.392 204.08 117.118 186.208 130.746 174.303C131.453 173.681 132.131 173.032 132.807 172.369C140.942 164.446 150.506 158.169 159.984 152.504C162.253 151.132 164.233 149.673 166.162 147.746C166.937 147.002 166.937 147.002 167.83 146.493C169.069 145.338 169.075 144.298 169.248 142.559C169.306 142.078 169.306 142.078 169.365 141.588C169.492 140.512 169.607 139.435 169.723 138.358C169.811 137.587 169.9 136.816 169.99 136.045C170.233 133.951 170.465 131.855 170.696 129.759C170.914 127.791 171.141 125.824 171.366 123.857C171.814 119.961 172.254 116.063 172.69 112.165C173.113 108.38 173.539 104.595 173.969 100.81C173.995 100.577 174.022 100.343 174.049 100.103C174.313 97.7849 174.576 95.4666 174.84 93.1484C174.943 92.2477 175.045 91.347 175.148 90.4463C175.198 90.002 175.249 89.5577 175.299 89.1133C175.622 86.2821 175.942 83.4505 176.259 80.6186C176.441 78.9984 176.624 77.3783 176.806 75.7582C176.891 75.0038 176.976 74.2493 177.06 73.4947C177.174 72.4694 177.289 71.4442 177.405 70.4192C177.439 70.1165 177.472 69.8138 177.506 69.5019C177.74 67.4545 177.74 67.4545 178.066 67.0882ZM179.238 99.6457C178.511 105.872 177.785 112.098 177.061 118.324C176.725 121.215 176.388 124.106 176.051 126.997C175.756 129.517 175.463 132.037 175.17 134.557C175.015 135.891 174.86 137.225 174.704 138.559C174.557 139.815 174.411 141.072 174.265 142.328C174.212 142.788 174.158 143.249 174.104 143.71C174.03 144.339 173.957 144.97 173.884 145.6C173.843 145.952 173.802 146.304 173.76 146.667C173.673 147.663 173.658 148.633 173.673 149.633C173.467 149.715 173.262 149.798 173.05 149.882C167.436 152.61 162.416 158.848 158.737 164.103C158.508 164.42 158.28 164.736 158.045 165.063C143.008 186.309 139.447 215.246 142.032 241.575C142.921 250.169 144.285 258.641 146.143 267.037C146.191 267.255 146.239 267.473 146.288 267.697C151.455 291.262 159.8 314.289 169.903 335.729C170.002 335.945 170.102 336.162 170.205 336.385C170.821 337.703 171.462 338.977 172.183 340.228C174.613 344.61 174.886 348.005 174.428 353.068C174.309 354.38 174.212 355.693 174.121 357.007C174.014 358.548 173.905 360.089 173.788 361.63C173.382 367.045 173.072 372.466 172.768 377.889C172.749 378.237 172.749 378.237 172.729 378.592C172.61 380.718 172.492 382.844 172.374 384.97C172.203 388.052 172.029 391.135 171.852 394.217C171.774 395.571 171.697 396.925 171.62 398.279C171.559 399.348 171.497 400.417 171.436 401.487C171.368 402.664 171.301 403.842 171.234 405.02C171.214 405.364 171.194 405.708 171.173 406.062C171.155 406.383 171.137 406.704 171.118 407.034C171.103 407.309 171.087 407.584 171.071 407.867C171.028 409.047 171.037 410.228 171.037 411.409C207.184 411.409 243.33 411.409 280.572 411.409C279.53 410.824 278.67 410.501 277.553 410.178C277.172 410.066 276.792 409.954 276.412 409.842C276.211 409.783 276.009 409.723 275.802 409.663C257.8 404.346 240.224 396.381 224.34 385.428C223.971 385.175 223.971 385.175 223.595 384.916C218.388 381.326 213.366 377.446 208.525 373.26C208.349 373.109 208.173 372.957 207.991 372.801C204.564 369.843 201.284 366.703 198.086 363.439C197.619 362.964 197.15 362.493 196.679 362.024C196.204 361.551 195.734 361.075 195.267 360.593C194.735 360.049 194.191 359.52 193.636 359.004C192.108 357.487 191.07 356.298 190.79 353.927C190.749 353.086 190.724 352.243 190.713 351.401C190.696 350.934 190.677 350.468 190.658 350.002C190.618 349.003 190.588 348.005 190.565 347.006C190.529 345.4 190.471 343.796 190.41 342.191C190.338 340.23 190.27 338.269 190.21 336.308C190.106 332.949 189.97 329.594 189.81 326.238C189.799 325.999 189.787 325.761 189.776 325.515C189.73 324.551 189.684 323.586 189.637 322.622C189.518 320.141 189.406 317.659 189.294 315.178C189.247 314.147 189.201 313.117 189.154 312.086C189.118 311.294 189.083 310.502 189.047 309.709C188.932 307.167 188.816 304.626 188.701 302.084C188.466 296.907 188.232 291.731 187.998 286.555C187.767 281.45 187.535 276.345 187.304 271.241C187.29 270.92 187.275 270.599 187.26 270.269C187.186 268.639 187.112 267.01 187.038 265.381C186.519 253.922 186 242.463 185.481 231.004C184.978 219.891 184.475 208.778 183.971 197.665C183.955 197.32 183.94 196.976 183.924 196.621C183.767 193.164 183.61 189.706 183.454 186.248C183.135 179.209 182.816 172.169 182.497 165.129C182.482 164.805 182.467 164.482 182.452 164.148C181.478 142.647 180.504 121.147 179.531 99.6457C179.434 99.6457 179.337 99.6457 179.238 99.6457ZM149.612 165.946C149.363 166.132 149.114 166.318 148.858 166.51C148.59 166.713 148.323 166.916 148.047 167.124C147.774 167.33 147.501 167.536 147.219 167.749C145.361 169.158 143.519 170.592 141.695 172.057C141.473 172.235 141.251 172.412 141.021 172.595C140.817 172.762 140.612 172.928 140.401 173.099C140.223 173.244 140.044 173.389 139.86 173.538C139.328 174.004 139.328 174.004 138.821 174.956C140.685 174.789 142.524 174.515 144.368 174.174C144.586 174.137 144.804 174.1 145.029 174.061C146.191 173.838 146.849 173.665 147.608 172.653C147.852 172.238 148.083 171.812 148.303 171.38C148.429 171.137 148.554 170.894 148.683 170.644C148.811 170.391 148.94 170.139 149.072 169.879C150.429 167.222 150.429 167.222 151.067 166.27C151.473 165.768 151.473 165.768 151.415 165.09C150.616 165.09 150.276 165.449 149.612 165.946ZM141.942 180.154C141.686 180.212 141.43 180.271 141.166 180.331C139.992 180.606 138.819 180.884 137.646 181.167C137.03 181.314 136.412 181.458 135.795 181.598C134.9 181.802 134.008 182.016 133.116 182.233C132.843 182.293 132.569 182.353 132.288 182.415C130.288 182.918 129.116 183.848 127.692 185.479C127.299 185.894 127.299 185.894 126.897 186.317C126.575 186.675 126.575 186.675 126.246 187.041C125.916 187.405 125.916 187.405 125.579 187.776C124.996 188.429 124.996 188.429 124.764 189.426C125.083 189.342 125.402 189.259 125.731 189.172C131.154 187.773 136.492 186.93 142.043 186.466C142.386 185.494 142.727 184.52 143.068 183.547C143.166 183.27 143.264 182.993 143.364 182.708C143.503 182.311 143.503 182.311 143.645 181.905C143.774 181.539 143.774 181.539 143.905 181.164C144.125 180.551 144.125 180.551 144.093 179.888C143.315 179.888 142.699 179.981 141.942 180.154ZM135.069 192.57C134.765 192.605 134.461 192.639 134.148 192.674C132.202 193.48 131.086 195.919 129.999 197.812C129.797 198.161 129.797 198.161 129.592 198.518C126.416 203.57 126.416 203.57 124.764 209.157C125.051 209.074 125.338 208.99 125.634 208.904C129.612 207.76 133.589 206.884 137.65 206.198C137.723 205.798 137.723 205.798 137.797 205.39C137.982 204.379 138.167 203.368 138.352 202.358C138.47 201.714 138.588 201.07 138.705 200.426C139.199 197.737 139.724 195.058 140.286 192.385C138.537 192.327 136.81 192.361 135.069 192.57ZM121.89 196.393C121.625 196.489 121.361 196.585 121.088 196.684C118.091 197.834 116.999 199.941 115.465 202.93C115.285 203.277 115.106 203.625 114.921 203.983C112.042 209.416 112.042 209.416 110.413 215.406C110.993 215.205 111.57 214.995 112.141 214.765C112.844 214.497 113.522 214.285 114.24 214.084C115.846 213.57 117.438 213.031 118.454 211.457C119.243 209.779 119.765 207.986 120.324 206.2C120.927 204.443 121.722 202.8 122.512 201.141C122.734 200.67 122.734 200.67 122.96 200.189C123.731 198.557 124.524 196.943 125.349 195.345C124.16 195.345 123.005 195.967 121.89 196.393ZM125.77 214.728C125.452 214.834 125.133 214.94 124.805 215.05C124.507 215.157 124.209 215.264 123.902 215.374C123.637 215.467 123.372 215.56 123.1 215.656C121.909 216.37 121.606 217.492 121.194 218.879C120.911 220.03 120.911 220.03 120.956 221.325C121.135 221.282 121.314 221.239 121.498 221.195C126.469 220.014 131.443 219.114 136.478 218.366C136.653 216.765 136.81 215.192 136.79 213.576C136.787 213.298 136.784 213.019 136.782 212.732C136.778 212.529 136.775 212.326 136.771 212.117C133.075 212.117 129.271 213.515 125.77 214.728ZM112.024 221.099C111.71 221.264 111.396 221.428 111.073 221.597C110.624 221.837 110.624 221.837 110.166 222.082C109.753 222.302 109.753 222.302 109.331 222.526C108.576 222.948 108.576 222.948 108.07 223.956C107.939 224.685 107.831 225.419 107.74 226.156C107.691 226.543 107.642 226.931 107.592 227.331C107.556 227.628 107.521 227.925 107.484 228.231C108.473 227.822 109.283 227.357 110.138 226.669C111.204 225.827 112.244 225.301 113.451 224.758C114.595 224.152 115.005 223.869 115.517 222.552C115.734 221.481 115.891 220.445 115.977 219.352C114.621 219.352 113.227 220.454 112.024 221.099ZM130.273 224.82C129.82 224.905 129.82 224.905 129.358 224.993C127.176 225.426 125.035 225.978 122.897 226.628C122.622 226.712 122.347 226.795 122.063 226.881C120.644 227.284 120.644 227.284 119.492 228.231C119.031 230.819 119.173 233.497 119.199 236.124C119.611 236.01 119.611 236.01 120.031 235.894C125.467 234.414 130.963 233.226 136.478 232.178C136.527 229.533 136.375 226.921 136.186 224.285C134.159 224.224 132.269 224.438 130.273 224.82ZM109.377 234.279C107.716 236.33 106.788 237.927 106.839 240.744C106.867 241.412 106.867 241.412 107.191 242.044C108.642 241.44 110.004 240.647 111.383 239.865C112.223 239.39 113.062 238.915 113.927 238.426C114.024 235.822 114.121 233.217 114.22 230.534C112.794 230.534 110.375 233.223 109.377 234.279ZM131.262 238.776C130.903 238.847 130.545 238.918 130.176 238.992C126.547 239.746 123.02 240.838 119.492 242.044C119.237 243.219 119.195 244.142 119.352 245.336C119.392 245.64 119.431 245.943 119.471 246.255C119.514 246.568 119.557 246.881 119.602 247.203C119.663 247.677 119.663 247.677 119.725 248.162C119.901 249.756 119.901 249.756 120.37 251.252C120.656 251.188 120.656 251.188 120.948 251.122C126.494 249.886 132.035 249.015 137.65 248.292C137.435 244.347 137.435 244.347 137.046 240.42C137.019 240.191 136.993 239.963 136.965 239.727C136.902 239.184 136.837 238.64 136.771 238.097C134.883 238.055 133.116 238.405 131.262 238.776ZM111.493 246.072C111.298 246.202 111.104 246.333 110.903 246.467C109.794 247.218 108.77 248.01 107.777 248.95C108.102 251.647 108.543 254.235 109.241 256.843C109.466 256.699 109.466 256.699 109.694 256.552C111.562 255.37 113.469 254.288 115.392 253.225C115.252 252.047 115.112 250.868 114.971 249.69C114.931 249.356 114.892 249.022 114.851 248.678C114.793 248.194 114.793 248.194 114.734 247.701C114.699 247.405 114.663 247.109 114.627 246.804C114.525 246.078 114.391 245.383 114.22 244.675C113.189 244.675 112.355 245.484 111.493 246.072ZM133.001 254.438C132.688 254.481 132.688 254.481 132.369 254.524C128.698 255.033 125.125 255.803 121.542 256.843C121.99 259.173 122.581 261.413 123.318 263.646C123.393 263.879 123.468 264.111 123.546 264.351C123.902 265.596 123.902 265.596 124.764 266.38C125.372 266.305 125.977 266.202 126.58 266.087C126.956 266.016 127.331 265.946 127.717 265.874C127.917 265.836 128.116 265.797 128.321 265.758C129.351 265.56 130.383 265.369 131.414 265.179C131.62 265.14 131.826 265.102 132.038 265.063C134.779 264.557 137.531 264.148 140.286 263.749C140.049 262.289 139.811 260.83 139.572 259.371C139.505 258.956 139.437 258.54 139.368 258.112C139.303 257.715 139.237 257.318 139.17 256.908C139.111 256.541 139.051 256.174 138.989 255.797C138.835 254.849 138.835 254.849 138.529 253.883C136.673 253.883 134.841 254.185 133.001 254.438ZM116.27 258.816C114.375 259.818 112.671 261.138 111.474 263.091C111.024 264.708 111.906 266.426 112.445 267.921C112.522 268.144 112.6 268.366 112.68 268.595C113.018 269.543 113.277 270.254 113.927 270.984C114.062 270.88 114.198 270.777 114.337 270.67C115.885 269.53 117.463 268.739 119.199 268.024C118.989 266.1 118.444 264.325 117.899 262.495C117.808 262.177 117.716 261.86 117.622 261.532C117.533 261.231 117.443 260.929 117.351 260.618C117.27 260.343 117.189 260.068 117.106 259.785C116.905 259.085 116.905 259.085 116.27 258.816ZM136.956 269.847C136.523 269.905 136.09 269.962 135.657 270.018C132.583 270.418 129.555 270.958 126.521 271.641C127.954 275.138 129.414 278.551 131.207 281.836C131.405 281.799 131.604 281.761 131.808 281.723C134.364 281.242 136.922 280.778 139.48 280.315C139.902 280.239 140.323 280.163 140.745 280.087C141.763 279.902 142.782 279.718 143.8 279.534C143.417 277.175 142.901 274.887 142.299 272.587C142.218 272.272 142.137 271.958 142.053 271.634C141.856 270.869 141.657 270.104 141.457 269.339C139.956 269.339 138.446 269.647 136.956 269.847ZM119.553 273.861C119.344 273.98 119.135 274.099 118.92 274.221C118.704 274.347 118.488 274.472 118.265 274.601C118.046 274.727 117.826 274.852 117.6 274.982C117.058 275.291 116.518 275.604 115.977 275.917C116.154 277.224 116.52 278.208 117.08 279.367C117.244 279.708 117.409 280.048 117.578 280.399C117.75 280.751 117.923 281.103 118.101 281.466C118.353 281.991 118.353 281.991 118.61 282.526C119.5 284.359 120.419 286.091 121.542 287.756C121.681 287.525 121.82 287.295 121.963 287.057C123.124 285.594 124.565 284.432 126.228 283.809C125.789 282.51 125.26 281.294 124.688 280.062C124.598 279.867 124.508 279.673 124.415 279.472C124.129 278.855 123.842 278.239 123.555 277.623C123.361 277.202 123.166 276.782 122.971 276.362C122.495 275.336 122.019 274.311 121.542 273.286C120.64 273.286 120.331 273.413 119.553 273.861ZM141.643 285.485C141.444 285.521 141.245 285.558 141.039 285.595C140.41 285.711 139.78 285.829 139.151 285.947C138.722 286.026 138.292 286.106 137.863 286.185C136.815 286.378 135.768 286.573 134.721 286.769C134.721 288.101 135.306 288.801 135.984 289.832C136.182 290.136 136.182 290.136 136.383 290.447C139.64 295.436 143.162 300.162 146.909 304.693C147.322 305.195 147.732 305.7 148.141 306.206C151.079 310.054 151.079 310.054 154.637 313.078C153.91 310.496 153.025 307.99 152.14 305.473C150.58 301.034 149.086 296.576 147.681 292.072C147.569 291.715 147.569 291.715 147.455 291.35C146.811 289.28 146.172 287.207 145.558 285.125C144.214 285.084 142.968 285.239 141.643 285.485ZM127.747 289.236C126.814 289.729 126.814 289.729 126.063 289.667C125.342 289.646 125.342 289.646 124.933 290.164C124.566 290.661 124.224 291.181 123.885 291.702C124.272 292.907 124.74 293.844 125.423 294.868C125.631 295.182 125.84 295.497 126.055 295.822C126.234 296.09 126.234 296.09 126.416 296.363C126.864 297.04 127.305 297.721 127.746 298.404C129.849 301.651 132.021 304.811 134.302 307.903C134.905 308.725 135.499 309.556 136.094 310.386C137.198 311.9 138.355 313.351 139.538 314.788C140.128 315.514 140.706 316.247 141.281 316.989C144.131 320.655 147.166 324.125 150.225 327.569C150.44 327.812 150.44 327.812 150.66 328.06C152.156 329.747 153.665 331.401 155.276 332.951C156.143 333.793 156.97 334.682 157.803 335.564C159.248 337.082 160.723 338.525 162.27 339.913C163.549 341.088 164.787 342.317 166.022 343.551C166.2 343.726 166.378 343.902 166.561 344.083C166.718 344.24 166.876 344.396 167.038 344.558C167.562 345.012 168.094 345.324 168.694 345.636C168.273 344.047 167.659 342.645 166.955 341.196C165.33 337.789 163.791 334.335 162.251 330.878C162.126 330.597 162 330.316 161.871 330.027C161.509 329.215 161.148 328.404 160.787 327.592C160.677 327.347 160.568 327.102 160.455 326.849C159.934 325.673 159.442 324.504 159.03 323.273C158.658 323.411 158.658 323.411 158.278 323.552C157.011 323.615 156.693 323.26 155.78 322.345C155.513 322.062 155.513 322.062 155.241 321.773C155.05 321.578 154.859 321.383 154.662 321.183C154.063 320.569 153.471 319.948 152.879 319.327C152.52 318.959 152.161 318.591 151.802 318.225C149.719 316.087 147.703 313.875 145.704 311.64C145.487 311.397 145.27 311.155 145.046 310.905C143.692 309.381 142.414 307.804 141.164 306.172C140.865 305.792 140.565 305.412 140.265 305.033C136.82 300.65 133.731 296.006 130.756 291.213C130.63 291.011 130.504 290.809 130.374 290.6C130.092 290.149 129.813 289.696 129.534 289.242C129.41 289.077 129.285 288.912 129.157 288.742C128.501 288.691 128.501 288.691 127.747 289.236ZM155.222 340.703C155.069 348.93 154.916 357.158 154.764 365.386C154.693 369.206 154.623 373.027 154.551 376.847C154.489 380.179 154.427 383.511 154.366 386.843C154.333 388.606 154.301 390.368 154.268 392.131C154.237 393.793 154.206 395.456 154.175 397.119C154.164 397.726 154.153 398.332 154.141 398.939C154.126 399.775 154.11 400.611 154.095 401.448C154.091 401.681 154.086 401.913 154.081 402.153C154.037 404.691 154.051 407.224 154.051 409.764C159.995 409.439 159.995 409.439 166.059 409.107C166.173 407.271 166.287 405.436 166.405 403.545C166.695 398.909 167.007 394.275 167.343 389.643C167.624 385.767 167.887 381.89 168.138 378.012C168.293 375.636 168.456 373.261 168.637 370.887C168.798 368.774 168.944 366.66 169.071 364.544C169.139 363.435 169.216 362.33 169.307 361.224C169.838 356.901 169.838 356.901 168.904 352.82C167.983 351.665 166.922 350.916 165.697 350.224C164.898 349.74 164.238 349.092 163.551 348.431C163.295 348.194 163.038 347.957 162.774 347.713C160.477 345.568 158.196 343.41 155.987 341.151C155.581 340.667 155.581 340.667 155.222 340.703Z" fill="white"/>
<path d="M172.255 162.899C172.582 163.183 172.908 163.468 173.234 163.754C173.478 163.966 173.478 163.966 173.727 164.182C174.198 164.592 174.669 165.004 175.138 165.419C175.387 165.578 175.637 165.738 175.894 165.902C176.81 166.978 176.761 167.551 176.744 168.993C176.727 169.467 176.727 169.467 176.71 169.95C176.704 170.293 176.698 170.637 176.691 170.99C176.676 171.771 176.658 172.551 176.636 173.331C176.6 174.705 176.574 176.08 176.55 177.455C176.496 180.534 176.428 183.612 176.359 186.69C176.323 188.303 176.288 189.917 176.253 191.53C176.184 194.681 176.114 197.833 176.044 200.984C175.963 204.666 175.882 208.349 175.801 212.032C175.657 218.613 175.512 225.194 175.367 231.776C175.226 238.135 175.086 244.494 174.947 250.854C174.938 251.245 174.929 251.636 174.921 252.039C174.886 253.613 174.852 255.186 174.817 256.76C174.675 263.223 174.533 269.686 174.391 276.15C174.359 277.613 174.327 279.076 174.294 280.539C174.21 284.388 174.125 288.237 174.04 292.086C174.005 293.675 173.97 295.263 173.935 296.852C173.765 304.563 173.582 312.274 173.38 319.984C172.869 320.095 172.358 320.203 171.846 320.311C171.561 320.371 171.277 320.432 170.983 320.494C170.001 320.671 169.101 320.692 168.109 320.642C159.993 292.309 153.348 263.176 149.891 220.285C149.889 219.853 149.888 219.422 149.886 218.977C149.883 218.068 149.881 217.159 149.88 216.249C149.879 215.339 149.875 214.429 149.868 213.518C149.804 204.567 150.392 195.844 152.294 187.124C152.35 186.864 152.407 186.604 152.465 186.337C154.392 177.769 158.322 168.522 165.015 163.486C167.935 161.533 169.426 160.545 172.255 162.899ZM168.987 167.721C168.262 168.209 168.262 168.209 167.523 168.707C168.228 169.625 168.917 169.989 169.921 170.413C170.185 170.526 170.449 170.639 170.721 170.756C170.922 170.84 171.123 170.923 171.33 171.009C171.205 169.792 171.205 169.792 170.56 168.845C170.373 168.711 170.187 168.578 169.994 168.44C169.806 168.302 169.619 168.164 169.425 168.022C169.281 167.923 169.136 167.823 168.987 167.721ZM163.423 173.64C162.76 174.385 162.76 174.385 162.251 175.284C162.625 176.543 162.952 176.606 163.984 177.196C164.279 177.366 164.575 177.537 164.879 177.712C165.189 177.888 165.5 178.063 165.821 178.244C166.278 178.507 166.278 178.507 166.746 178.776C168.172 179.595 169.603 180.403 171.037 181.204C171.414 180.855 171.414 180.855 171.359 180.052C171.355 179.72 171.352 179.388 171.349 179.046C171.346 178.713 171.343 178.38 171.341 178.037C171.337 177.78 171.334 177.523 171.33 177.258C170.123 176.653 168.915 176.051 167.706 175.449C167.362 175.276 167.017 175.104 166.663 174.926C166.334 174.763 166.006 174.6 165.667 174.431C165.364 174.28 165.06 174.128 164.747 173.972C164.05 173.599 164.05 173.599 163.423 173.64ZM159.615 181.204C159.37 181.902 159.126 182.601 158.883 183.3C158.747 183.69 158.611 184.079 158.471 184.48C158.118 185.405 158.118 185.405 158.151 186.137C162.427 188.38 166.701 190.62 171.037 192.714C171.037 191.086 171.037 189.458 171.037 187.781C168.891 186.463 166.743 185.148 164.594 183.835C164.234 183.615 164.234 183.615 163.867 183.39C163.256 183.016 162.644 182.644 162.032 182.273C161.852 182.163 161.673 182.053 161.488 181.939C160.602 181.376 160.602 181.376 159.615 181.204ZM156.687 191.728C156.493 193.138 156.3 194.549 156.101 196.003C159.436 198.027 162.812 199.944 166.223 201.799C166.414 201.903 166.605 202.008 166.801 202.115C167.347 202.413 167.893 202.709 168.439 203.004C168.757 203.176 169.074 203.348 169.401 203.525C170.111 203.939 170.111 203.939 170.745 203.896C170.745 202.268 170.745 200.64 170.745 198.963C167.858 197.309 164.946 195.727 162.012 194.183C161.61 193.971 161.207 193.758 160.805 193.546C160.233 193.243 159.66 192.942 159.087 192.642C158.752 192.466 158.416 192.29 158.071 192.108C157.327 191.685 157.327 191.685 156.687 191.728ZM155.515 202.251C155.061 202.761 155.159 203.271 155.13 203.979C155.117 204.26 155.105 204.541 155.092 204.83C155.081 205.125 155.069 205.421 155.058 205.725C155.045 206.021 155.032 206.318 155.019 206.623C154.988 207.358 154.958 208.093 154.929 208.829C156.904 209.761 158.879 210.692 160.855 211.621C161.527 211.937 162.199 212.254 162.871 212.571C163.836 213.027 164.803 213.481 165.769 213.935C166.069 214.077 166.369 214.219 166.678 214.366C167.1 214.563 167.1 214.563 167.531 214.765C167.777 214.881 168.024 214.997 168.278 215.117C169.098 215.473 169.098 215.473 170.452 215.735C170.452 213.89 170.452 212.045 170.452 210.144C164.416 206.866 164.416 206.866 158.371 203.608C158.113 203.469 157.856 203.33 157.59 203.187C157.357 203.062 157.124 202.937 156.883 202.809C156.58 202.646 156.58 202.646 156.271 202.48C155.848 202.229 155.848 202.229 155.515 202.251ZM154.929 215.077C154.89 216.043 154.861 217.008 154.838 217.975C154.826 218.249 154.813 218.523 154.801 218.806C154.796 219.069 154.791 219.333 154.786 219.605C154.779 219.848 154.771 220.091 154.763 220.341C154.884 221.068 154.884 221.068 155.551 221.521C156.457 222.018 157.367 222.457 158.304 222.873C158.487 222.955 158.669 223.036 158.857 223.12C159.439 223.38 160.021 223.637 160.604 223.895C160.983 224.063 161.363 224.232 161.742 224.401C162.311 224.655 162.88 224.908 163.449 225.16C164.443 225.6 165.435 226.044 166.425 226.496C166.626 226.588 166.828 226.68 167.035 226.774C167.421 226.95 167.807 227.127 168.192 227.305C169.145 227.757 169.145 227.757 170.159 227.903C170.159 225.949 170.159 223.996 170.159 221.983C168.414 221.157 166.669 220.332 164.923 219.508C164.33 219.228 163.737 218.948 163.145 218.667C162.289 218.262 161.433 217.858 160.578 217.455C160.316 217.33 160.054 217.206 159.784 217.078C158.187 216.327 156.581 215.662 154.929 215.077ZM155.515 227.903C155.485 228.898 155.486 229.868 155.515 230.862C155.524 231.226 155.533 231.59 155.543 231.965C155.57 232.34 155.597 232.716 155.625 233.103C155.645 233.458 155.666 233.812 155.687 234.178C156.16 235.275 156.303 235.347 157.266 235.794C157.852 236.021 158.44 236.239 159.03 236.453C159.427 236.609 159.824 236.766 160.221 236.924C161.344 237.37 162.47 237.806 163.598 238.238C164.308 238.511 165.018 238.786 165.728 239.061C166.18 239.235 166.632 239.409 167.084 239.582C167.402 239.706 167.402 239.706 167.726 239.831C168.772 240.254 168.772 240.254 169.866 240.399C169.963 238.337 170.059 236.275 170.159 234.151C164.198 231.462 164.198 231.462 158.224 228.807C157.906 228.665 157.906 228.665 157.581 228.521C156.578 228.058 156.578 228.058 155.515 227.903ZM156.687 241.715C157.073 244.537 157.46 247.358 157.858 250.265C159.432 250.734 161.006 251.203 162.581 251.67C163.117 251.83 163.653 251.989 164.188 252.149C164.957 252.378 165.726 252.607 166.496 252.835C166.736 252.907 166.976 252.978 167.224 253.053C168.383 253.42 168.383 253.42 169.573 253.554C169.67 251.275 169.766 248.996 169.866 246.648C167.743 245.788 165.619 244.929 163.495 244.072C162.656 243.733 161.818 243.393 160.98 243.052C160.538 242.874 160.095 242.695 159.652 242.517C159.451 242.434 159.249 242.351 159.042 242.266C158.212 241.934 157.576 241.715 156.687 241.715ZM159.03 256.514C159.21 259.66 159.856 262.661 160.494 265.722C161.683 265.943 162.873 266.162 164.063 266.38C164.4 266.442 164.737 266.505 165.084 266.57C165.41 266.629 165.736 266.689 166.071 266.75C166.37 266.805 166.669 266.86 166.977 266.917C167.917 267.072 167.917 267.072 169.28 267.037C169.377 264.541 169.473 262.045 169.573 259.474C168.166 259.051 166.758 258.629 165.351 258.209C164.872 258.066 164.393 257.922 163.914 257.778C163.226 257.572 162.539 257.366 161.851 257.161C161.636 257.096 161.421 257.032 161.2 256.965C160.13 256.631 160.13 256.631 159.03 256.514ZM161.665 271.641C162.161 276.75 162.161 276.75 163.716 281.179C164.108 281.23 164.503 281.261 164.897 281.283C165.111 281.295 165.324 281.308 165.544 281.321C165.953 281.342 165.953 281.342 166.37 281.364C167.234 281.411 168.097 281.458 168.987 281.507C169.084 278.686 169.181 275.864 169.28 272.957C166.767 272.523 164.254 272.089 161.665 271.641ZM165.18 287.098C165.354 288.993 165.676 290.747 166.142 292.576C166.207 292.835 166.271 293.094 166.338 293.361C166.542 294.179 166.749 294.996 166.955 295.813C167.095 296.371 167.235 296.93 167.375 297.488C167.715 298.849 168.058 300.209 168.402 301.568C168.498 301.568 168.595 301.568 168.694 301.568C168.791 296.793 168.888 292.018 168.987 287.098C167.731 287.098 166.474 287.098 165.18 287.098Z" fill="white"/>
<path d="M191.538 374.905C192.457 375.421 192.927 375.72 193.631 376.472C193.803 376.654 193.975 376.836 194.152 377.024C194.334 377.22 194.517 377.416 194.705 377.618C195.099 378.035 195.493 378.453 195.887 378.87C196.292 379.302 196.698 379.734 197.103 380.167C199.322 382.527 201.531 384.868 203.923 387.01C204.638 387.659 205.335 388.328 206.029 389.005C211.234 394.064 217.503 399.515 224.175 401.81C224.52 401.939 224.864 402.068 225.219 402.2C225.747 403.981 225.685 405.919 225.805 407.791C214.497 407.791 203.189 407.791 191.538 407.791C191.538 396.939 191.538 386.086 191.538 374.905ZM196.81 388.059C196.81 392.726 196.81 397.392 196.81 402.2C202.029 402.2 207.248 402.2 212.625 402.2C211.672 401.13 210.877 400.412 209.77 399.59C207.572 397.924 205.54 396.049 203.5 394.151C203.015 393.701 202.528 393.255 202.04 392.811C200.519 391.429 199.04 390.012 197.595 388.531C197.174 388.024 197.174 388.024 196.81 388.059Z" fill="white"/>
</svg>
